<?xml version="1.0" encoding="UTF-8" standalone="no"?>
<!DOCTYPE svg PUBLIC "-//W3C//DTD SVG 1.1//EN"
"http://www.w3.org/Graphics/SVG/1.1/DTD/svg11.dtd">
<svg version="1.1" xmlns="http://www.w3.org/2000/svg" xmlns:xlink="http://www.w3.org/1999/xlink">
<defs>
<clipPath id="c0_2"><path d="M0.5,1099.5L0.5,0.5l825,0l0,1099Z" /></clipPath>
<style type="text/css"><![CDATA[
.g2_2{
fill: #E7E6E6;
}
.g10_2{
fill: none;
stroke: #999999;
stroke-width: 1;
stroke-linecap: round;
stroke-linejoin: round;
stroke-miterlimit: 8;
}
.g1_2{
fill: #FFFFFF;
}
.g9_2{
fill: none;
stroke: #000000;
stroke-width: 1;
stroke-linecap: butt;
stroke-linejoin: miter;
stroke-miterlimit: 8;
stroke-dasharray: 3,3;
}
.g5_2{
}
.g6_2{
fill: none;
stroke: #FFFFFF;
stroke-width: 1;
stroke-linecap: butt;
stroke-linejoin: miter;
stroke-miterlimit: 8;
}
.g7_2{
fill: none;
stroke: #000000;
stroke-width: 1;
stroke-linecap: butt;
stroke-linejoin: miter;
stroke-miterlimit: 8;
}
.g4_2{
fill: none;
stroke: #000000;
stroke-width: 2;
stroke-linecap: butt;
stroke-linejoin: miter;
stroke-miterlimit: 8;
}
.g3_2{
fill: none;
stroke: #000000;
stroke-width: 1;
stroke-linecap: butt;
stroke-linejoin: round;
}
.g8_2{
fill: none;
stroke: #252525;
stroke-width: 1;
stroke-linecap: butt;
stroke-linejoin: miter;
stroke-miterlimit: 8;
stroke-dasharray: 2,1;
}
]]></style>
</defs>
<g clip-path="url(#c0_2)">
<path fill-rule="evenodd" d="M0,1099l825,0L825,0L0,0L0,1099Z" class="g1_2" />
</g>
<path fill-rule="evenodd" d="M467,968l153,0l0,-109l-153,0l0,109Z" class="g2_2" />
<path fill-rule="evenodd" d="M0,100l825,0L825,0L0,0L0,100Z" class="g2_2" />
<image x="9" y="10" width="85" height="85" xlink:href="/images/print/logo.png" />
<path fill-rule="evenodd" d="M650,95l175,0L825,4L650,4l0,91Z" class="g2_2" />
<image x="571" y="114" width="242" height="240" xlink:href="/uploads/storage/58/evi_7c48438f.png" />
<path d="M571.5,354.5l242,0l0,-241l-242,0l0,241Z" class="g3_2" />
<image x="571" y="368" width="242" height="241" xlink:href="/uploads/storage/48/evi_43052b66.png" />
<path d="M571.5,609.5l241,0l0,-241l-241,0l0,241Z" class="g3_2" />
<path d="M90.9,196.5c0,-8.3,6.7,-15,15,-15l278.1,0c8.2,0,14.9,6.7,14.9,15l0,59.9c0,8.2,-6.7,14.9,-14.9,14.9l-278.1,0c-8.3,0,-15,-6.7,-15,-14.9Z" class="g4_2" />
<g clip-path="url(#c0_2)">
<path fill-rule="evenodd" d="M0,1099l825,0l0,-52L0,1047l0,52Z" class="g5_2" />
</g>
<path d="M354.5,1085.5l254,0" class="g6_2" />
<path fill-rule="evenodd" d="M0,322l47,0L47,101L0,101L0,322Z" class="g2_2" />
<path fill-rule="evenodd" d="M0,544l47,0L47,322L0,322L0,544Z" class="g2_2" />
<g clip-path="url(#c0_2)">
<path fill-rule="evenodd" d="M0,789l46,0L46,542L0,542L0,789Z" class="g2_2" />
</g>
<path fill-rule="evenodd" d="M571,773l254,0l0,-150l-254,0l0,150Z" class="g2_2" />
<path d="M586.5,659.5l183,0" class="g7_2" />
<g clip-path="url(#c0_2)">
<path d="M0.5,546.5l549,0" class="g8_2" />
</g>
<path d="M0.5,309.5l550,0" class="g8_2" />
<path fill-rule="evenodd" d="M0,1047l47,0L47,789L0,789l0,258Z" class="g2_2" />
<path d="M0.5,796.5l825,0" class="g9_2" />
<path fill-rule="evenodd" d="M365,385l184,0l0,-45l-184,0l0,45Z" class="g2_2" />
<path fill-rule="evenodd" d="M365,537l184,0l0,-46l-184,0l0,46Z" class="g2_2" />
<path fill-rule="evenodd" d="M630,925l182,0l0,-35l-182,0l0,35Z" class="g2_2" />
<path d="M465.5,976.5l341,0" class="g8_2" />
<path fill-rule="evenodd" d="M666,1029l10,0l0,-11l-10,0l0,11Z" class="g1_2" />
<path d="M666.5,1029.5l10,0l0,-11l-10,0l0,11Z" class="g10_2" />
<path fill-rule="evenodd" d="M668,1026l6,0l0,-6l-6,0l0,6Z" class="g1_2" />
<path d="M668.5,1026.5l6,0l0,-6l-6,0l0,6Z" class="g10_2" />
<path fill-rule="evenodd" d="M486,1028l10,0l0,-10l-10,0l0,10Z" class="g1_2" />
<path d="M486.5,1028.5l10,0l0,-10l-10,0l0,10Z" class="g10_2" />
<path fill-rule="evenodd" d="M488,1026l6,0l0,-6l-6,0l0,6Z" class="g1_2" />
<path d="M488.5,1026.5l6,0l0,-6l-6,0l0,6Z" class="g10_2" />
<image x="415" y="138" width="134" height="134" xlink:href="/images/print/qr-code.png" />
<image x="363" y="904" width="69" height="70" xlink:href="/images/print/qr-code.png" />
<path d="M91.3,907.4c0,-8.2,6.7,-14.9,15,-14.9l318.5,0c8.3,0,15,6.7,15,14.9l0,59.9c0,8.3,-6.7,15,-15,15l-318.5,0c-8.3,0,-15,-6.7,-15,-15Z" class="g7_2" />
</svg>