<?xml version="1.0" encoding="UTF-8" standalone="no"?>
<!DOCTYPE svg PUBLIC "-//W3C//DTD SVG 1.1//EN"
"http://www.w3.org/Graphics/SVG/1.1/DTD/svg11.dtd">
<svg version="1.1" xmlns="http://www.w3.org/2000/svg" xmlns:xlink="http://www.w3.org/1999/xlink">
<defs>
<clipPath id="c0_3"><path d="M0.5,1099.5L0.5,0.5l825,0l0,1099Z" /></clipPath>
<style type="text/css"><![CDATA[
.g7_3{
fill: none;
stroke: #000000;
stroke-width: 1;
stroke-linecap: butt;
stroke-linejoin: miter;
}
.g4_3{
fill: none;
stroke: #FFFFFF;
stroke-width: 1;
stroke-linecap: butt;
stroke-linejoin: miter;
}
.g3_3{
}
.g6_3{
fill: none;
stroke: #41719C;
stroke-width: 2;
stroke-linecap: butt;
stroke-linejoin: miter;
}
.g2_3{
fill: #E7E6E6;
}
.g1_3{
fill: #FFFFFF;
}
.g9_3{
fill: #585858;
}
.g8_3{
fill: none;
stroke: #41719C;
stroke-width: 1;
stroke-linecap: butt;
stroke-linejoin: miter;
}
.g5_3{
fill: none;
stroke: #000000;
stroke-width: 1;
stroke-linecap: butt;
stroke-linejoin: miter;
stroke-dasharray: 3,3;
}
]]></style>
</defs>
<g clip-path="url(#c0_3)">
<path fill-rule="evenodd" d="M0,1099l825,0L825,0L0,0L0,1099Z" class="g1_3" />
</g>
<path fill-rule="evenodd" d="M0,100l825,0L825,0L0,0L0,100Z" class="g2_3" />
<image x="9" y="10" width="85" height="85" xlink:href="/images/print/logo.png" />
<g clip-path="url(#c0_3)">
<path fill-rule="evenodd" d="M0,1099l825,0l0,-52L0,1047l0,52Z" class="g3_3" />
</g>
<path d="M354.5,1085.5l254,0" class="g4_3" />
<path fill-rule="evenodd" d="M0,322l47,0L47,101L0,101L0,322Z" class="g2_3" />
<path fill-rule="evenodd" d="M0,544l47,0L47,322L0,322L0,544Z" class="g2_3" />
<g clip-path="url(#c0_3)">
<path fill-rule="evenodd" d="M0,789l46,0L46,542L0,542L0,789Z" class="g2_3" />
</g>
<path fill-rule="evenodd" d="M0,1047l47,0L47,789L0,789l0,258Z" class="g2_3" />
<path d="M0.5,796.5l825,0" class="g5_3" />
<path fill-rule="evenodd" d="M113,898l254,0l0,-33l-254,0l0,33Z" class="g2_3" />
<path fill-rule="evenodd" d="M74.4,854.2c0,-7.6,6.2,-13.8,13.8,-13.8c7.6,0,13.7,6.2,13.7,13.8c0,7.5,-6.1,13.7,-13.7,13.7c-7.6,0,-13.8,-6.2,-13.8,-13.7Z" class="g3_3" />
<path d="M74.4,854.2c0,-7.6,6.2,-13.8,13.8,-13.8c7.6,0,13.7,6.2,13.7,13.8c0,7.5,-6.1,13.7,-13.7,13.7c-7.6,0,-13.8,-6.2,-13.8,-13.7Z" class="g6_3" />
<path d="M210.5,829.5l58,0" class="g7_3" />
<path fill-rule="evenodd" d="M74.4,918.5c0,-7.6,6.2,-13.7,13.8,-13.7c7.6,0,13.7,6.1,13.7,13.7c0,7.6,-6.1,13.8,-13.7,13.8c-7.6,0,-13.8,-6.2,-13.8,-13.8Z" class="g3_3" />
<path d="M74.4,918.5c0,-7.6,6.2,-13.7,13.8,-13.7c7.6,0,13.7,6.1,13.7,13.7c0,7.6,-6.1,13.8,-13.7,13.8c-7.6,0,-13.8,-6.2,-13.8,-13.8Z" class="g8_3" />
<path fill-rule="evenodd" d="M126.6,942.7l54.3,0c7.1,0,12.9,5.8,12.9,13c0,7.2,-5.8,13,-12.9,13l-54.3,0c-7.2,0,-12.9,-5.8,-12.9,-13c0,-7.2,5.7,-13,12.9,-13Z" class="g9_3" />
<path fill-rule="evenodd" d="M221,942.7l54.3,0c7.1,0,12.9,5.8,12.9,13c0,7.2,-5.8,13,-12.9,13l-54.3,0c-7.1,0,-12.9,-5.8,-12.9,-13c0,-7.2,5.8,-13,12.9,-13Z" class="g9_3" />
<path fill-rule="evenodd" d="M315.4,942.7l54.3,0c7.1,0,12.9,5.8,12.9,13c0,7.2,-5.8,13,-12.9,13l-54.3,0c-7.1,0,-12.9,-5.8,-12.9,-13c0,-7.2,5.8,-13,12.9,-13Z" class="g9_3" />
<path fill-rule="evenodd" d="M74.4,988.4c0,-7.6,6.2,-13.8,13.8,-13.8c7.6,0,13.7,6.2,13.7,13.8c0,7.5,-6.1,13.7,-13.7,13.7c-7.6,0,-13.8,-6.2,-13.8,-13.7Z" class="g3_3" />
<path d="M74.4,988.4c0,-7.6,6.2,-13.8,13.8,-13.8c7.6,0,13.7,6.2,13.7,13.8c0,7.5,-6.1,13.7,-13.7,13.7c-7.6,0,-13.8,-6.2,-13.8,-13.7Z" class="g8_3" />
<image x="113" y="1000" width="120" height="40" xlink:href="/images/print/mc-visa.png" />
<path d="M535.5,825.5l119,0" class="g7_3" />
</svg>